<svg xmlns="http://www.w3.org/2000/svg" width="16" height="16" viewBox="0 0 16 16"><defs><style>.a,.b{fill:#fff;}.a{opacity:0;}</style></defs><g transform="translate(-4623 77)"><rect class="a" width="16" height="16" transform="translate(4623 -77)"/><g transform="translate(4623 -76)"><g transform="translate(10.669 10.649)"><path class="b" d="M343.544,340.91a1.994,1.994,0,1,0,1.994,1.994A2,2,0,0,0,343.544,340.91Zm0,2.792a.8.8,0,1,1,.8-.8A.8.8,0,0,1,343.544,343.7Z" transform="translate(-341.55 -340.91)"/></g><path class="b" d="M15.866,2.942a.6.6,0,0,0-.471-.23H3.693L3.154.459A.6.6,0,0,0,2.572,0H.6a.6.6,0,0,0,0,1.2H2.1L4.044,9.332a.6.6,0,0,0,.582.459h9.313a.6.6,0,0,0,.581-.454l1.456-5.883A.6.6,0,0,0,15.866,2.942ZM13.471,8.595H5.1L3.979,3.909H14.631Z"/><g transform="translate(3.43 10.649)"><path class="b" d="M111.8,340.91A1.994,1.994,0,1,0,113.8,342.9,2,2,0,0,0,111.8,340.91Zm0,2.792a.8.8,0,1,1,.8-.8A.8.8,0,0,1,111.8,343.7Z" transform="translate(-109.81 -340.91)"/></g></g></g></svg>