<svg xmlns="http://www.w3.org/2000/svg" width="16" height="16" viewBox="0 0 16 16"><defs><style>.a,.b{fill:#fff;}.a{opacity:0;}</style></defs><g transform="translate(-1826 78)"><rect class="a" width="16" height="16" transform="translate(1826 -78)"/><g transform="translate(1827 -77)"><path class="b" d="M1.75,6.125A4.333,4.333,0,0,1,6.125,1.75,4.333,4.333,0,0,1,10.5,6.125,4.333,4.333,0,0,1,6.125,10.5,4.333,4.333,0,0,1,1.75,6.125Zm10.762,7.613a.866.866,0,0,0,1.225-1.225L11.025,9.8A5.991,5.991,0,0,0,12.25,6.125,6.087,6.087,0,0,0,6.125,0,6.087,6.087,0,0,0,0,6.125,6.087,6.087,0,0,0,6.125,12.25,5.991,5.991,0,0,0,9.8,11.025Z"/></g></g></svg>