<svg xmlns="http://www.w3.org/2000/svg" width="22" height="23.624" viewBox="0 0 22 23.624"><defs><style>.a{fill:#fff;opacity:0;}.b{fill:#007f88;}.c{fill:#ffce00;}.d{fill:#ffea00;}.e{fill:#ffe400;}.f{fill:#00bfc1;}.g{fill:#007d88;}.h{fill:#f0bf00;}.i{fill:#00deb7;}</style></defs><rect class="a" width="22" height="22" transform="translate(0 1.624)"/><path class="b" d="M1.706,55.72H18.768a1.711,1.711,0,0,1,1.706,1.706v2.047a1.711,1.711,0,0,1-1.706,1.706H1.706A1.71,1.71,0,0,1,0,59.474V57.426A1.711,1.711,0,0,1,1.706,55.72Z" transform="translate(0 -53.306)"/><path class="c" d="M54.425,34.761l10.681-2.832a.686.686,0,0,1,.836.478l1.774,6.552a.686.686,0,0,1-.478.836l-13.9,3.7a.686.686,0,0,1-.836-.478l-1.3-4.811Z" transform="translate(-48.982 -30.521)"/><path class="d" d="M91.186,73.695l-2.3.614a.335.335,0,1,1-.171-.648l1.979-.529-1.058-3.958-1.979.529a.335.335,0,1,1-.171-.648l2.3-.614a.317.317,0,0,1,.409.239l1.229,4.607A.316.316,0,0,1,91.186,73.695Zm-9.554,2.576-2.3.614a.317.317,0,0,1-.409-.239L77.69,72.04a.317.317,0,0,1,.239-.409l2.3-.614a.335.335,0,1,1,.171.648l-1.979.529,1.058,3.958,1.979-.529a.317.317,0,0,1,.409.239A.331.331,0,0,1,81.632,76.271Z" transform="translate(-74.312 -65.463)"/><path class="c" d="M2.777,6.63C5.814,4.889,14,.1,14,.1a.689.689,0,0,1,.938.239L18.354,6.2a.675.675,0,0,1-.256.921L5.609,14.29a.689.689,0,0,1-.938-.239s-.956-1.945-1.911-3.583C2.76,6.63,2.777,7.892,2.777,6.63Z" transform="translate(-2.64 -0.002)"/><path class="e" d="M20.737,43.84l-2.389-4.129a.324.324,0,0,0-.46-.12l-2.064,1.194a.336.336,0,0,0,.341.58l1.774-1.024,2.047,3.549-1.774,1.024a.336.336,0,1,0,.341.58L20.617,44.3A.33.33,0,0,0,20.737,43.84Zm-9.043,4.828L9.919,49.692,7.872,46.144,9.647,45.12a.336.336,0,0,0-.341-.58L7.241,45.734a.324.324,0,0,0-.12.46l2.389,4.129a.324.324,0,0,0,.46.12l2.064-1.194a.324.324,0,0,0,.12-.46A.331.331,0,0,0,11.694,48.669Zm.87-6.023A2.736,2.736,0,1,0,16.3,43.653,2.734,2.734,0,0,0,12.564,42.646Zm8.172,1.194-2.389-4.129a.324.324,0,0,0-.46-.12l-2.064,1.194a.336.336,0,0,0,.341.58l1.774-1.024,2.047,3.549-1.774,1.024a.336.336,0,1,0,.341.58L20.617,44.3A.33.33,0,0,0,20.737,43.84Zm-9.043,4.828L9.919,49.692,7.872,46.144,9.647,45.12a.336.336,0,0,0-.341-.58L7.241,45.734a.324.324,0,0,0-.12.46l2.389,4.129a.324.324,0,0,0,.46.12l2.064-1.194a.324.324,0,0,0,.12-.46A.331.331,0,0,0,11.694,48.669Zm.87-6.023A2.736,2.736,0,1,0,16.3,43.653,2.734,2.734,0,0,0,12.564,42.646Z" transform="translate(-6.763 -37.827)"/><path class="f" d="M19.45,110.465H1.706A1.711,1.711,0,0,1,0,108.759V96.475H19.45a1.711,1.711,0,0,1,1.706,1.706v10.578A1.711,1.711,0,0,1,19.45,110.465ZM1.365,96.475H0V95.11A1.369,1.369,0,0,0,1.365,96.475Z" transform="translate(0 -90.99)"/><path class="g" d="M375.338,245.607h-2.73a2.389,2.389,0,0,1,0-4.777h2.73a.684.684,0,0,1,.682.682v3.412A.685.685,0,0,1,375.338,245.607Z" transform="translate(-354.182 -230.397)"/><path class="c" d="M395.205,264.46a1.365,1.365,0,1,1-1.365,1.365A1.369,1.369,0,0,1,395.205,264.46Z" transform="translate(-376.779 -253.004)"/><path class="h" d="M395.546,272.12a1.376,1.376,0,0,1-1.126-2.15,1.329,1.329,0,0,0-.58,1.126,1.369,1.369,0,0,0,1.365,1.365,1.42,1.42,0,0,0,1.126-.58A1.372,1.372,0,0,1,395.546,272.12Z" transform="translate(-376.779 -258.275)"/><path class="i" d="M19.45,396.136H1.706A1.711,1.711,0,0,1,0,394.43v.682a1.711,1.711,0,0,0,1.706,1.706H19.45a1.711,1.711,0,0,0,1.706-1.706v-.682A1.711,1.711,0,0,1,19.45,396.136Z" transform="translate(0 -377.343)"/><path class="i" d="M19.45,96.475H1.365A1.369,1.369,0,0,1,0,95.11v.682a1.369,1.369,0,0,0,1.365,1.365H19.45a1.711,1.711,0,0,1,1.706,1.706v-.682A1.712,1.712,0,0,0,19.45,96.475Z" transform="translate(0 -90.99)"/></svg>